<svg width="28" height="28" viewBox="0 0 28 28" fill="none" xmlns="http://www.w3.org/2000/svg">
<path d="M2.91699 14C2.91699 8.77563 2.91699 6.16229 4.53983 4.53946C6.16266 2.91663 8.77483 2.91663 14.0003 2.91663C19.2247 2.91663 21.838 2.91663 23.4608 4.53946C25.0837 6.16229 25.0837 8.77446 25.0837 14C25.0837 19.2243 25.0837 21.8376 23.4608 23.4605C21.838 25.0833 19.2258 25.0833 14.0003 25.0833C8.77599 25.0833 6.16266 25.0833 4.53983 23.4605C2.91699 21.8376 2.91699 19.2255 2.91699 14Z" stroke="black" stroke-width="1.5" stroke-linecap="round" stroke-linejoin="round"/>
<path d="M20.426 7.58325H20.4143M19.25 13.9999C19.25 15.3923 18.6969 16.7277 17.7123 17.7122C16.7277 18.6968 15.3924 19.2499 14 19.2499C12.6076 19.2499 11.2723 18.6968 10.2877 17.7122C9.30312 16.7277 8.75 15.3923 8.75 13.9999C8.75 12.6075 9.30312 11.2722 10.2877 10.2876C11.2723 9.30304 12.6076 8.74992 14 8.74992C15.3924 8.74992 16.7277 9.30304 17.7123 10.2876C18.6969 11.2722 19.25 12.6075 19.25 13.9999Z" stroke="black" stroke-width="1.5" stroke-linecap="round" stroke-linejoin="round"/>
</svg>
