<svg width="25" height="20" viewBox="0 0 25 20" fill="none" xmlns="http://www.w3.org/2000/svg">
<path d="M24.4067 2.33333C23.5083 2.74167 22.54 3.01 21.5367 3.13833C22.5633 2.52 23.3567 1.54 23.73 0.361667C22.7617 0.945 21.6883 1.35333 20.5567 1.58667C19.635 0.583333 18.34 0 16.87 0C14.1283 0 11.8883 2.24 11.8883 5.005C11.8883 5.40167 11.935 5.78667 12.0167 6.14833C7.86333 5.93833 4.165 3.94333 1.70333 0.921667C1.27167 1.65667 1.02667 2.52 1.02667 3.43C1.02667 5.16833 1.90167 6.70833 3.255 7.58333C2.42667 7.58333 1.65667 7.35 0.98 7V7.035C0.98 9.46167 2.70667 11.4917 4.99333 11.9467C4.25931 12.1484 3.48838 12.1764 2.74167 12.0283C3.05854 13.0229 3.67913 13.8931 4.51619 14.5168C5.35325 15.1404 6.36469 15.486 7.40833 15.505C5.63928 16.9056 3.44634 17.6626 1.19 17.6517C0.793333 17.6517 0.396667 17.6283 0 17.5817C2.21667 19.005 4.85333 19.8333 7.67667 19.8333C16.87 19.8333 21.9217 12.2033 21.9217 5.58833C21.9217 5.36667 21.9217 5.15667 21.91 4.935C22.89 4.235 23.73 3.34833 24.4067 2.33333Z" fill="#00B3FF"/>
</svg>
