<svg width="24" height="19" viewBox="0 0 24 19" fill="none" xmlns="http://www.w3.org/2000/svg">
<path fill-rule="evenodd" clip-rule="evenodd" d="M11.6667 0C12.6642 0 13.6873 0.0256668 14.679 0.0676668L15.8503 0.123667L16.9715 0.190167L18.0215 0.261333L18.9805 0.336C20.0212 0.415657 21.0005 0.859771 21.7461 1.59021C22.4917 2.32065 22.9558 3.29063 23.0568 4.3295L23.1035 4.82533L23.191 5.887C23.2727 6.98717 23.3333 8.1865 23.3333 9.33333C23.3333 10.4802 23.2727 11.6795 23.191 12.7797L23.1035 13.8413C23.0883 14.0117 23.0732 14.1762 23.0568 14.3372C22.9558 15.3762 22.4915 16.3463 21.7457 17.0768C20.9998 17.8073 20.0203 18.2513 18.9793 18.3307L18.0227 18.4042L16.9727 18.4765L15.8503 18.543L14.679 18.599C13.6755 18.6426 12.6711 18.6652 11.6667 18.6667C10.6622 18.6652 9.65786 18.6426 8.65433 18.599L7.483 18.543L6.36183 18.4765L5.31183 18.4042L4.35283 18.3307C3.31211 18.251 2.33281 17.8069 1.58722 17.0765C0.841626 16.346 0.377503 15.376 0.2765 14.3372L0.229833 13.8413L0.142333 12.7797C0.0531272 11.633 0.00565136 10.4835 0 9.33333C0 8.1865 0.0606666 6.98717 0.142333 5.887L0.229833 4.82533C0.245 4.655 0.260167 4.4905 0.2765 4.3295C0.377464 3.29081 0.84142 2.32098 1.58677 1.59057C2.33213 0.86015 3.31115 0.41592 4.35167 0.336L5.3095 0.261333L6.3595 0.190167L7.48183 0.123667L8.65317 0.0676668C9.65708 0.0240718 10.6618 0.00151117 11.6667 0ZM9.33333 6.50417V12.1625C9.33333 12.7015 9.91667 13.0375 10.3833 12.7692L15.2833 9.94C15.39 9.87862 15.4785 9.79023 15.5401 9.68372C15.6017 9.57722 15.6341 9.45636 15.6341 9.33333C15.6341 9.21031 15.6017 9.08945 15.5401 8.98294C15.4785 8.87644 15.39 8.78804 15.2833 8.72667L10.3833 5.89867C10.2769 5.83721 10.1561 5.80486 10.0332 5.80488C9.91031 5.8049 9.78957 5.83729 9.68314 5.89878C9.57671 5.96027 9.48835 6.0487 9.42695 6.15518C9.36554 6.26165 9.33325 6.38242 9.33333 6.50533V6.50417Z" fill="#FF0000"/>
</svg>
