<svg width="200" height="109" viewBox="0 0 200 109" fill="none" xmlns="http://www.w3.org/2000/svg">
<path fill-rule="evenodd" clip-rule="evenodd" d="M52.0539 15.153C57.2904 28.3179 53.2334 39.6224 48.6418 50.6177C38.2321 43.0055 32.9242 35.4521 31.463 31.6372C32.5999 41.7842 39.8762 48.0508 46.8314 53.7608C39.9854 51.1576 26.7195 54.2085 20.0758 57.2323C28.6837 55.6467 38.9741 53.1065 47.987 57.6765C37.6872 65.1619 22.9455 65.6054 7.55797 56.1744C15.4165 57.7631 29.8006 48.0433 41.3545 51.5912C32.2008 45.8261 26.094 34.872 25.7026 19.6832C28.1405 25.7547 39.4824 31.423 45.2801 39.6774C45.5742 29.2977 51.3982 16.179 47.7006 4.52396C56.2289 10.7677 63.7302 20.599 62.9461 32.5738C61.6889 50.9703 41.5236 65.0867 70.4337 73.1197C64.1971 73.5429 58.2067 70.8697 54.3035 66.0071C43.5506 52.506 65.4801 38.8718 52.0539 15.153Z" fill="#66BC46"/>
<path fill-rule="evenodd" clip-rule="evenodd" d="M158.917 38.9278C156.004 49.0542 159.837 57.1315 164.042 64.9411C171.192 58.5523 174.569 52.5758 175.372 49.6454C175.273 57.241 170.344 62.407 165.613 67.1376C170.491 64.7153 180.537 66.0156 185.678 67.7744C179.188 67.2224 171.383 66.0853 165.044 70.1205C173.219 74.9187 184.167 74.1817 194.87 66.0864C189.167 67.8307 177.804 61.6732 169.509 65.1353C175.865 60.205 179.584 51.6526 178.761 40.3778C177.401 45.0496 169.418 50.0664 165.73 56.5974C164.751 48.9329 159.478 39.6401 161.362 30.7429C155.505 35.9824 150.671 43.8042 152.128 52.6143C154.407 66.1452 167.28 67.7744 151.64 86.2274C156.289 86.0901 158.443 80.628 160.977 76.7454C167.95 65.9714 150.713 57.4608 158.917 38.9278Z" fill="#66BC46"/>
<mask id="path-3-outside-1_226_11" maskUnits="userSpaceOnUse" x="53.1333" y="40.5664" width="74" height="34" fill="black">
<rect fill="white" x="53.1333" y="40.5664" width="74" height="34"/>
<path d="M69.1539 73.1592C66.175 73.1592 63.5456 72.5056 61.2658 71.1985C58.986 69.8914 57.2078 68.0524 55.9311 65.6814C54.6848 63.3104 54.0617 60.5899 54.0617 57.5198C54.0617 54.4192 54.6848 51.6835 55.9311 49.3125C57.1774 46.9415 58.9404 45.1025 61.2202 43.7954C63.5 42.4883 66.1446 41.8348 69.1539 41.8348C72.1329 41.8348 74.7622 42.4883 77.042 43.7954C79.3218 45.0721 81.0848 46.8807 82.3311 49.2213C83.5774 51.5619 84.2006 54.2673 84.2006 57.3374C84.2006 60.4683 83.5774 63.2344 82.3311 65.6358C81.0848 68.0068 79.3218 69.8611 77.042 71.1985C74.7622 72.5056 72.1329 73.1592 69.1539 73.1592ZM69.1539 67.3685C71.6465 67.3685 73.6375 66.4718 75.127 64.6783C76.6468 62.8849 77.4068 60.4987 77.4068 57.5198C77.4068 55.5743 77.0572 53.8569 76.3581 52.3674C75.6893 50.8476 74.7166 49.6925 73.4399 48.9021C72.1936 48.0814 70.765 47.6711 69.1539 47.6711C67.5429 47.6711 66.099 48.0814 64.8223 48.9021C63.576 49.6925 62.6033 50.8476 61.9042 52.3674C61.2354 53.8569 60.9011 55.5743 60.9011 57.5198C60.9011 59.4652 61.2354 61.1826 61.9042 62.6721C62.6033 64.1616 63.576 65.3167 64.8223 66.1374C66.0686 66.9581 67.5125 67.3685 69.1539 67.3685ZM88.9978 49.0845H95.29V52.7322C97.1442 49.8748 99.652 48.4462 102.813 48.4462C104.607 48.4462 106.127 48.8717 107.373 49.7229C108.65 50.5436 109.577 51.7291 110.154 53.2793C111.218 51.6075 112.404 50.3916 113.711 49.6317C115.048 48.8413 116.568 48.4462 118.27 48.4462C120.793 48.4462 122.754 49.2061 124.152 50.726C125.581 52.2154 126.295 54.2977 126.295 56.9726V72.5664H119.866V57.9757C119.866 56.7598 119.562 55.8175 118.954 55.1488C118.377 54.4496 117.586 54.1001 116.583 54.1001C115.337 54.1001 114.182 54.6168 113.118 55.6503C112.054 56.6838 111.264 58.0061 110.747 59.6172V72.5664H104.318V57.9757C104.318 56.7902 104.014 55.8479 103.406 55.1488C102.798 54.4496 101.993 54.1001 100.989 54.1001C99.8648 54.1001 98.8009 54.5256 97.7978 55.3768C96.825 56.1975 96.0347 57.3678 95.4268 58.8876V72.5664H88.9978V49.0845Z"/>
</mask>
<path d="M69.1539 73.1592C66.175 73.1592 63.5456 72.5056 61.2658 71.1985C58.986 69.8914 57.2078 68.0524 55.9311 65.6814C54.6848 63.3104 54.0617 60.5899 54.0617 57.5198C54.0617 54.4192 54.6848 51.6835 55.9311 49.3125C57.1774 46.9415 58.9404 45.1025 61.2202 43.7954C63.5 42.4883 66.1446 41.8348 69.1539 41.8348C72.1329 41.8348 74.7622 42.4883 77.042 43.7954C79.3218 45.0721 81.0848 46.8807 82.3311 49.2213C83.5774 51.5619 84.2006 54.2673 84.2006 57.3374C84.2006 60.4683 83.5774 63.2344 82.3311 65.6358C81.0848 68.0068 79.3218 69.8611 77.042 71.1985C74.7622 72.5056 72.1329 73.1592 69.1539 73.1592ZM69.1539 67.3685C71.6465 67.3685 73.6375 66.4718 75.127 64.6783C76.6468 62.8849 77.4068 60.4987 77.4068 57.5198C77.4068 55.5743 77.0572 53.8569 76.3581 52.3674C75.6893 50.8476 74.7166 49.6925 73.4399 48.9021C72.1936 48.0814 70.765 47.6711 69.1539 47.6711C67.5429 47.6711 66.099 48.0814 64.8223 48.9021C63.576 49.6925 62.6033 50.8476 61.9042 52.3674C61.2354 53.8569 60.9011 55.5743 60.9011 57.5198C60.9011 59.4652 61.2354 61.1826 61.9042 62.6721C62.6033 64.1616 63.576 65.3167 64.8223 66.1374C66.0686 66.9581 67.5125 67.3685 69.1539 67.3685ZM88.9978 49.0845H95.29V52.7322C97.1442 49.8748 99.652 48.4462 102.813 48.4462C104.607 48.4462 106.127 48.8717 107.373 49.7229C108.65 50.5436 109.577 51.7291 110.154 53.2793C111.218 51.6075 112.404 50.3916 113.711 49.6317C115.048 48.8413 116.568 48.4462 118.27 48.4462C120.793 48.4462 122.754 49.2061 124.152 50.726C125.581 52.2154 126.295 54.2977 126.295 56.9726V72.5664H119.866V57.9757C119.866 56.7598 119.562 55.8175 118.954 55.1488C118.377 54.4496 117.586 54.1001 116.583 54.1001C115.337 54.1001 114.182 54.6168 113.118 55.6503C112.054 56.6838 111.264 58.0061 110.747 59.6172V72.5664H104.318V57.9757C104.318 56.7902 104.014 55.8479 103.406 55.1488C102.798 54.4496 101.993 54.1001 100.989 54.1001C99.8648 54.1001 98.8009 54.5256 97.7978 55.3768C96.825 56.1975 96.0347 57.3678 95.4268 58.8876V72.5664H88.9978V49.0845Z" fill="black"/>
<path d="M61.2658 71.1985L61.4926 70.803L61.2658 71.1985ZM55.9311 65.6814L55.5275 65.8936L55.5297 65.8976L55.9311 65.6814ZM55.9311 49.3125L55.5275 49.1004L55.9311 49.3125ZM61.2202 43.7954L60.9935 43.3998L61.2202 43.7954ZM77.042 43.7954L76.8152 44.191L76.8192 44.1932L77.042 43.7954ZM82.3311 49.2213L81.9287 49.4356H81.9287L82.3311 49.2213ZM82.3311 65.6358L82.7347 65.848L82.7358 65.8459L82.3311 65.6358ZM77.042 71.1985L77.2688 71.5941L77.2727 71.5918L77.042 71.1985ZM75.127 64.6783L74.7791 64.3835L74.7762 64.387L75.127 64.6783ZM76.3581 52.3674L75.9406 52.5511L75.9453 52.5612L76.3581 52.3674ZM73.4399 48.9021L73.1891 49.2831L73.1999 49.2898L73.4399 48.9021ZM64.8223 48.9021L65.0665 49.2872L65.0689 49.2857L64.8223 48.9021ZM61.9042 52.3674L61.4899 52.1769L61.4882 52.1807L61.9042 52.3674ZM61.9042 62.6721L61.4882 62.8589L61.4914 62.8658L61.9042 62.6721ZM64.8223 66.1374L65.0731 65.7566L64.8223 66.1374ZM69.1539 72.7032C66.2437 72.7032 63.6946 72.0654 61.4926 70.803L61.039 71.5941C63.3967 72.9458 66.1062 73.6151 69.1539 73.6151V72.7032ZM61.4926 70.803C59.2885 69.5393 57.57 67.7633 56.3326 65.4653L55.5297 65.8976C56.8456 68.3416 58.6835 70.2436 61.039 71.5941L61.4926 70.803ZM56.3347 65.4693C55.1275 63.1727 54.5176 60.5269 54.5176 57.5198H53.6057C53.6057 60.6529 54.2421 63.4482 55.5275 65.8936L56.3347 65.4693ZM54.5176 57.5198C54.5176 54.4815 55.1279 51.8206 56.3347 49.5246L55.5275 49.1004C54.2418 51.5464 53.6057 54.357 53.6057 57.5198H54.5176ZM56.3347 49.5246C57.5415 47.2288 59.2439 45.4541 61.447 44.191L60.9935 43.3998C58.637 44.7509 56.8133 46.6542 55.5275 49.1004L56.3347 49.5246ZM61.447 44.191C63.6483 42.9289 66.2124 42.2907 69.1539 42.2907V41.3788C66.0767 41.3788 63.3518 42.0477 60.9935 43.3998L61.447 44.191ZM69.1539 42.2907C72.0641 42.2907 74.6133 42.9285 76.8152 44.191L77.2688 43.3998C74.9112 42.0481 72.2016 41.3788 69.1539 41.3788V42.2907ZM76.8192 44.1932C79.0216 45.4265 80.7228 47.1709 81.9287 49.4356L82.7336 49.007C81.4469 46.5905 79.622 44.7176 77.2648 43.3976L76.8192 44.1932ZM81.9287 49.4356C83.1347 51.7005 83.7446 54.3301 83.7446 57.3374H84.6565C84.6565 54.2044 84.0202 51.4233 82.7336 49.007L81.9287 49.4356ZM83.7446 57.3374C83.7446 60.4067 83.1341 63.0988 81.9264 65.4258L82.7358 65.8459C84.0207 63.3701 84.6565 60.5299 84.6565 57.3374H83.7446ZM81.9275 65.4237C80.7203 67.7204 79.0167 69.5114 76.8113 70.8053L77.2727 71.5918C79.627 70.2107 81.4494 68.2932 82.7347 65.848L81.9275 65.4237ZM76.8152 70.803C74.6133 72.0654 72.0641 72.7032 69.1539 72.7032V73.6151C72.2016 73.6151 74.9112 72.9458 77.2688 71.5941L76.8152 70.803ZM69.1539 67.8244C71.7714 67.8244 73.895 66.8753 75.4777 64.9696L74.7762 64.387C73.38 66.0682 71.5216 66.9125 69.1539 66.9125V67.8244ZM75.4748 64.9731C77.0815 63.0772 77.8627 60.577 77.8627 57.5198H76.9508C76.9508 60.4203 76.2122 62.6925 74.7791 64.3835L75.4748 64.9731ZM77.8627 57.5198C77.8627 55.5195 77.5031 53.7338 76.7708 52.1737L75.9453 52.5612C76.6113 53.9799 76.9508 55.6292 76.9508 57.5198H77.8627ZM76.7754 52.1838C76.0737 50.5889 75.0432 49.3584 73.6799 48.5145L73.1999 49.2898C74.39 50.0265 75.305 51.1063 75.9407 52.5511L76.7754 52.1838ZM73.6907 48.5213C72.364 47.6477 70.8467 47.2151 69.1539 47.2151V48.127C70.6833 48.127 72.0233 48.5152 73.1892 49.2829L73.6907 48.5213ZM69.1539 47.2151C67.4611 47.2151 65.9306 47.6476 64.5758 48.5186L65.0689 49.2857C66.2674 48.5152 67.6247 48.127 69.1539 48.127V47.2151ZM64.5781 48.5171C63.248 49.3606 62.2208 50.5881 61.4899 52.1769L62.3184 52.558C62.9859 51.107 63.9041 50.0244 65.0665 49.2872L64.5781 48.5171ZM61.4882 52.1807C60.7886 53.739 60.4451 55.5221 60.4451 57.5198H61.357C61.357 55.6266 61.6823 53.9748 62.3201 52.5542L61.4882 52.1807ZM60.4451 57.5198C60.4451 59.5174 60.7886 61.3005 61.4882 62.8589L62.3201 62.4853C61.6823 61.0648 61.357 59.413 61.357 57.5198H60.4451ZM61.4914 62.8658C62.2225 64.4233 63.248 65.6466 64.5715 66.5182L65.0731 65.7566C63.9041 64.9868 62.9841 63.8998 62.3169 62.4784L61.4914 62.8658ZM64.5715 66.5182C65.8997 67.3928 67.4326 67.8244 69.1539 67.8244V66.9125C67.5923 66.9125 66.2375 66.5234 65.0731 65.7566L64.5715 66.5182ZM88.9978 49.0845V48.6286H88.5418V49.0845H88.9978ZM95.29 49.0845H95.7459V48.6286H95.29V49.0845ZM95.29 52.7322H94.834V54.2724L95.6725 52.9804L95.29 52.7322ZM107.373 49.7229L107.116 50.0995L107.126 50.1064L107.373 49.7229ZM110.154 53.2793L109.727 53.4385L110.047 54.2973L110.539 53.5241L110.154 53.2793ZM113.711 49.6317L113.94 50.0259L113.943 50.0242L113.711 49.6317ZM124.152 50.726L123.817 51.0347L123.823 51.0416L124.152 50.726ZM126.295 72.5664V73.0224H126.751V72.5664H126.295ZM119.866 72.5664H119.41V73.0224H119.866V72.5664ZM118.954 55.1488L118.603 55.4392L118.61 55.4475L118.617 55.4555L118.954 55.1488ZM113.118 55.6503L113.436 55.9774V55.9774L113.118 55.6503ZM110.747 59.6172L110.313 59.4779L110.291 59.5458V59.6172H110.747ZM110.747 72.5664V73.0224H111.203V72.5664H110.747ZM104.318 72.5664H103.862V73.0224H104.318V72.5664ZM103.406 55.1488L103.062 55.448L103.406 55.1488ZM97.7978 55.3768L98.0918 55.7252L98.0928 55.7244L97.7978 55.3768ZM95.4268 58.8876L95.0034 58.7183L94.9708 58.7998V58.8876H95.4268ZM95.4268 72.5664V73.0224H95.8827V72.5664H95.4268ZM88.9978 72.5664H88.5418V73.0224H88.9978V72.5664ZM88.9978 49.5405H95.29V48.6286H88.9978V49.5405ZM94.834 49.0845V52.7322H95.7459V49.0845H94.834ZM95.6725 52.9804C97.4504 50.2406 99.8202 48.9021 102.813 48.9021V47.9902C99.4838 47.9902 96.838 49.5091 94.9075 52.484L95.6725 52.9804ZM102.813 48.9021C104.533 48.9021 105.959 49.3091 107.116 50.0994L107.63 49.3463C106.295 48.4343 104.681 47.9902 102.813 47.9902V48.9021ZM107.126 50.1064C108.313 50.869 109.181 51.9718 109.727 53.4385L110.582 53.1202C109.973 51.4863 108.987 50.2182 107.619 49.3393L107.126 50.1064ZM110.539 53.5241C111.575 51.8954 112.712 50.7395 113.94 50.0259L113.482 49.2375C112.095 50.0437 110.861 51.3196 109.77 53.0346L110.539 53.5241ZM113.943 50.0242C115.203 49.2793 116.642 48.9021 118.27 48.9021V47.9902C116.495 47.9902 114.893 48.4034 113.479 49.2391L113.943 50.0242ZM118.27 48.9021C120.696 48.9021 122.523 49.629 123.817 51.0347L124.488 50.4173C122.984 48.7832 120.89 47.9902 118.27 47.9902V48.9021ZM123.823 51.0416C125.148 52.4233 125.839 54.3792 125.839 56.9726H126.751C126.751 54.2161 126.013 52.0076 124.481 50.4103L123.823 51.0416ZM125.839 56.9726V72.5664H126.751V56.9726H125.839ZM126.295 72.1104H119.866V73.0224H126.295V72.1104ZM120.322 72.5664V57.9757H119.41V72.5664H120.322ZM120.322 57.9757C120.322 56.6862 119.999 55.6201 119.292 54.8421L118.617 55.4555C119.125 56.0149 119.41 56.8335 119.41 57.9757H120.322ZM119.306 54.8584C118.632 54.0424 117.706 53.6441 116.583 53.6441V54.556C117.467 54.556 118.122 54.8569 118.603 55.4392L119.306 54.8584ZM116.583 53.6441C115.196 53.6441 113.932 54.2239 112.8 55.3233L113.436 55.9774C114.432 55.0097 115.478 54.556 116.583 54.556V53.6441ZM112.8 55.3233C111.676 56.4158 110.849 57.8058 110.313 59.4779L111.181 59.7564C111.678 58.2065 112.433 56.9519 113.436 55.9774L112.8 55.3233ZM110.291 59.6172V72.5664H111.203V59.6172H110.291ZM110.747 72.1104H104.318V73.0224H110.747V72.1104ZM104.774 72.5664V57.9757H103.862V72.5664H104.774ZM104.774 57.9757C104.774 56.7118 104.449 55.6528 103.75 54.8496L103.062 55.448C103.579 56.0431 103.862 56.8686 103.862 57.9757H104.774ZM103.75 54.8496C103.048 54.0419 102.112 53.6441 100.989 53.6441V54.556C101.873 54.556 102.548 54.8574 103.062 55.448L103.75 54.8496ZM100.989 53.6441C99.7389 53.6441 98.5735 54.1205 97.5028 55.0291L98.0928 55.7244C99.0282 54.9307 99.9907 54.556 100.989 54.556V53.6441ZM97.5037 55.0283C96.4598 55.909 95.6314 57.1483 95.0034 58.7183L95.8501 59.057C96.438 57.5872 97.1903 56.4859 98.0918 55.7252L97.5037 55.0283ZM94.9708 58.8876V72.5664H95.8827V58.8876H94.9708ZM95.4268 72.1104H88.9978V73.0224H95.4268V72.1104ZM89.4537 72.5664V49.0845H88.5418V72.5664H89.4537Z" fill="black" mask="url(#path-3-outside-1_226_11)"/>
<path d="M89.3037 79.4431V86.4473H88.0057V79.4431H89.3037ZM94.231 79.4431L91.2433 82.7101L94.5445 86.4473H92.747L90.0384 83.1754V82.3329L92.6441 79.4431H94.231ZM97.0454 83.6946V79.4431H98.3434V83.6946C98.3434 84.8113 98.9148 85.3697 100.058 85.3697C101.201 85.3697 101.772 84.8113 101.772 83.6946V79.4431H103.07V83.6946C103.07 85.5624 102.066 86.4962 100.058 86.4962C98.0495 86.4962 97.0454 85.5624 97.0454 83.6946ZM109.288 85.3207C110.742 85.3207 111.468 84.4652 111.468 82.7542C111.468 81.2978 110.742 80.5697 109.288 80.5697H107.844V85.3207H109.288ZM106.546 86.4473V79.4431H109.288C111.607 79.4431 112.766 80.5468 112.766 82.7542C112.766 85.2162 111.607 86.4473 109.288 86.4473H106.546ZM115.879 86.4375V79.4431H119.063C120.493 79.4431 121.208 80.0684 121.208 81.3191C121.208 82.1648 120.651 82.8652 119.538 83.4203L121.757 86.4473H120.121L117.99 83.3958V82.8032C119.231 82.5909 119.851 82.1093 119.851 81.3582C119.851 80.8423 119.561 80.5844 118.98 80.5844H117.202V86.4375H115.879ZM125.1 86.4473H123.768L126.741 79.4431H128.137L131.174 86.4473H129.778L128.979 84.537H126.653L127.099 83.4105H128.509L127.407 80.7803L125.1 86.4473ZM138.617 79.4431V80.5697H136.609V86.4473H135.311V80.5697H133.302V79.4431H138.617Z" fill="black"/>
<path fill-rule="evenodd" clip-rule="evenodd" d="M143.345 96.038C130.783 104.102 113.593 109 94.7461 109C75.8996 109 58.7096 104.102 46.1468 96.038C34.6324 88.647 26.7389 78.3873 25.5317 66.6406H28.2844C30.7978 88.7933 59.5934 106.265 94.7461 106.265C126.541 106.265 153.135 91.972 159.785 72.8502L161.523 75.9375C158.153 83.7968 151.703 90.6732 143.345 96.038ZM65.9051 24.9155C74.6324 22.2219 84.4147 20.7128 94.7461 20.7128C118.282 20.7128 138.968 28.5447 150.824 40.3698C151.173 39.4499 151.554 38.5227 151.958 37.6576C149.403 35.2204 146.511 32.9714 143.345 30.9393C130.783 22.8753 113.593 17.9771 94.7461 17.9771C84.255 17.9771 74.2773 19.4949 65.3252 22.2316L65.9051 24.9155Z" fill="#66BC46"/>
</svg>
